<svg xmlns="http://www.w3.org/2000/svg" xmlns:xlink="http://www.w3.org/1999/xlink" width="500" zoomAndPan="magnify" viewBox="0 0 375 374.999991" height="500" preserveAspectRatio="xMidYMid meet" version="1.2"><defs><clipPath id="4b8c8250d0"><path d="M 116 101 L 259 101 L 259 273 L 116 273 Z M 116 101 "/></clipPath><clipPath id="64f31eb15e"><path d="M 14.496094 27.246094 L 14.496094 347.753906 C 14.496094 354.792969 20.207031 360.503906 27.246094 360.503906 L 347.753906 360.503906 C 354.792969 360.503906 360.503906 354.792969 360.503906 347.753906 L 360.503906 27.246094 C 360.503906 20.207031 354.792969 14.496094 347.753906 14.496094 L 27.246094 14.496094 C 20.207031 14.496094 14.496094 20.207031 14.496094 27.246094 Z M 14.496094 27.246094 "/></clipPath><clipPath id="fe925085fa"><path d="M 14.496094 14.496094 L 360.246094 14.496094 L 360.246094 360.246094 L 14.496094 360.246094 Z M 14.496094 14.496094 "/></clipPath><clipPath id="754e58626e"><path d="M 14.496094 27.246094 L 14.496094 347.753906 C 14.496094 354.792969 20.207031 360.503906 27.246094 360.503906 L 347.753906 360.503906 C 354.792969 360.503906 360.503906 354.792969 360.503906 347.753906 L 360.503906 27.246094 C 360.503906 20.207031 354.792969 14.496094 347.753906 14.496094 L 27.246094 14.496094 C 20.207031 14.496094 14.496094 20.207031 14.496094 27.246094 Z M 14.496094 27.246094 "/></clipPath></defs><g id="a0a475322f"><g clip-rule="nonzero" clip-path="url(#4b8c8250d0)"><g clip-rule="nonzero" clip-path="url(#64f31eb15e)"><path style=" stroke:none;fill-rule:nonzero;fill:#ea2d3f;fill-opacity:1;" d="M 116.652344 137.222656 L 116.652344 196.015625 C 116.652344 198.058594 116.773438 200.097656 117.019531 202.125 C 117.265625 204.152344 117.632812 206.160156 118.117188 208.144531 C 118.605469 210.128906 119.207031 212.078125 119.929688 213.992188 C 120.648438 215.902344 121.480469 217.765625 122.425781 219.578125 C 123.367188 221.390625 124.417969 223.140625 125.570312 224.828125 C 126.722656 226.515625 127.972656 228.125 129.320312 229.664062 C 130.667969 231.199219 132.101562 232.648438 133.625 234.015625 C 135.144531 235.378906 136.742188 236.648438 138.417969 237.820312 L 187.371094 272.074219 L 236.328125 237.804688 C 238 236.632812 239.597656 235.363281 241.117188 234 C 242.640625 232.636719 244.074219 231.1875 245.421875 229.648438 C 246.765625 228.113281 248.015625 226.503906 249.171875 224.816406 C 250.324219 223.132812 251.375 221.382812 252.316406 219.570312 C 253.261719 217.757812 254.09375 215.898438 254.8125 213.984375 C 255.535156 212.074219 256.136719 210.125 256.625 208.140625 C 257.109375 206.15625 257.476562 204.152344 257.722656 202.121094 C 257.96875 200.09375 258.09375 198.058594 258.09375 196.015625 L 258.09375 137.238281 L 187.371094 101.878906 Z M 229.914062 163.796875 L 185.070312 208.644531 C 184.707031 209.007812 184.308594 209.335938 183.878906 209.621094 C 183.449219 209.90625 182.996094 210.148438 182.519531 210.347656 C 182.042969 210.542969 181.554688 210.691406 181.046875 210.792969 C 180.542969 210.894531 180.03125 210.945312 179.515625 210.945312 C 179 210.945312 178.488281 210.894531 177.980469 210.792969 C 177.476562 210.691406 176.984375 210.542969 176.507812 210.347656 C 176.03125 210.148438 175.578125 209.90625 175.148438 209.621094 C 174.71875 209.335938 174.324219 209.007812 173.957031 208.644531 L 144.828125 179.515625 L 155.941406 168.402344 L 179.515625 191.976562 L 218.804688 152.6875 Z M 229.914062 163.796875 "/></g></g><g clip-rule="nonzero" clip-path="url(#fe925085fa)"><g clip-rule="nonzero" clip-path="url(#754e58626e)"><path style=" stroke:none;fill-rule:nonzero;fill:#ea2d3f;fill-opacity:1;" d="M 187.371094 14.496094 C 184.542969 14.496094 181.714844 14.566406 178.890625 14.707031 C 176.0625 14.84375 173.242188 15.050781 170.425781 15.328125 C 167.613281 15.605469 164.804688 15.953125 162.007812 16.367188 C 159.207031 16.785156 156.421875 17.265625 153.644531 17.820312 C 150.871094 18.371094 148.113281 18.992188 145.367188 19.679688 C 142.621094 20.367188 139.898438 21.121094 137.1875 21.941406 C 134.480469 22.761719 131.796875 23.648438 129.132812 24.601562 C 126.46875 25.554688 123.828125 26.574219 121.214844 27.65625 C 118.601562 28.738281 116.015625 29.886719 113.457031 31.09375 C 110.902344 32.304688 108.375 33.578125 105.878906 34.910156 C 103.382812 36.242188 100.921875 37.636719 98.496094 39.09375 C 96.070312 40.546875 93.679688 42.058594 91.328125 43.632812 C 88.976562 45.203125 86.664062 46.832031 84.390625 48.519531 C 82.117188 50.203125 79.886719 51.941406 77.703125 53.738281 C 75.515625 55.53125 73.371094 57.378906 71.277344 59.28125 C 69.179688 61.179688 67.132812 63.128906 65.132812 65.132812 C 63.128906 67.132812 61.179688 69.179688 59.28125 71.277344 C 57.378906 73.371094 55.53125 75.515625 53.738281 77.703125 C 51.941406 79.886719 50.203125 82.117188 48.519531 84.390625 C 46.832031 86.664062 45.203125 88.976562 43.632812 91.328125 C 42.058594 93.679688 40.546875 96.070312 39.09375 98.496094 C 37.636719 100.921875 36.242188 103.382812 34.910156 105.878906 C 33.578125 108.375 32.304688 110.902344 31.09375 113.457031 C 29.886719 116.015625 28.738281 118.601562 27.65625 121.214844 C 26.574219 123.828125 25.554688 126.46875 24.601562 129.132812 C 23.648438 131.796875 22.761719 134.480469 21.941406 137.1875 C 21.121094 139.898438 20.367188 142.621094 19.679688 145.367188 C 18.992188 148.113281 18.371094 150.871094 17.820312 153.644531 C 17.265625 156.421875 16.785156 159.207031 16.367188 162.007812 C 15.953125 164.804688 15.605469 167.613281 15.328125 170.425781 C 15.050781 173.242188 14.84375 176.0625 14.707031 178.890625 C 14.566406 181.714844 14.496094 184.542969 14.496094 187.371094 C 14.496094 190.203125 14.566406 193.027344 14.707031 195.855469 C 14.84375 198.679688 15.050781 201.5 15.328125 204.316406 C 15.605469 207.132812 15.953125 209.941406 16.367188 212.738281 C 16.785156 215.535156 17.265625 218.324219 17.820312 221.097656 C 18.371094 223.875 18.992188 226.632812 19.679688 229.378906 C 20.367188 232.121094 21.121094 234.847656 21.941406 237.554688 C 22.761719 240.261719 23.648438 242.949219 24.601562 245.613281 C 25.554688 248.277344 26.574219 250.914062 27.65625 253.527344 C 28.738281 256.140625 29.886719 258.726562 31.09375 261.285156 C 32.304688 263.84375 33.578125 266.371094 34.910156 268.863281 C 36.242188 271.359375 37.636719 273.820312 39.09375 276.246094 C 40.546875 278.675781 42.058594 281.0625 43.632812 283.417969 C 45.203125 285.769531 46.832031 288.082031 48.519531 290.355469 C 50.203125 292.625 51.941406 294.855469 53.738281 297.042969 C 55.53125 299.230469 57.378906 301.371094 59.28125 303.46875 C 61.179688 305.5625 63.128906 307.613281 65.132812 309.613281 C 67.132812 311.613281 69.179688 313.5625 71.277344 315.464844 C 73.371094 317.363281 75.515625 319.210938 77.703125 321.007812 C 79.886719 322.800781 82.117188 324.542969 84.390625 326.226562 C 86.664062 327.914062 88.976562 329.539062 91.328125 331.113281 C 93.679688 332.683594 96.070312 334.199219 98.496094 335.652344 C 100.921875 337.105469 103.382812 338.5 105.878906 339.835938 C 108.375 341.167969 110.902344 342.441406 113.457031 343.648438 C 116.015625 344.859375 118.601562 346.003906 121.214844 347.089844 C 123.828125 348.171875 126.46875 349.1875 129.132812 350.140625 C 131.796875 351.09375 134.480469 351.980469 137.1875 352.804688 C 139.898438 353.625 142.621094 354.378906 145.367188 355.066406 C 148.113281 355.753906 150.871094 356.375 153.644531 356.925781 C 156.421875 357.476562 159.207031 357.960938 162.007812 358.375 C 164.804688 358.792969 167.613281 359.136719 170.425781 359.414062 C 173.242188 359.691406 176.0625 359.898438 178.890625 360.039062 C 181.714844 360.179688 184.542969 360.246094 187.371094 360.246094 C 190.203125 360.246094 193.027344 360.179688 195.855469 360.039062 C 198.679688 359.898438 201.5 359.691406 204.316406 359.414062 C 207.132812 359.136719 209.941406 358.792969 212.738281 358.375 C 215.535156 357.960938 218.324219 357.476562 221.097656 356.925781 C 223.875 356.375 226.632812 355.753906 229.378906 355.066406 C 232.121094 354.378906 234.847656 353.625 237.554688 352.804688 C 240.261719 351.980469 242.949219 351.09375 245.613281 350.140625 C 248.277344 349.1875 250.914062 348.171875 253.527344 347.089844 C 256.140625 346.003906 258.726562 344.859375 261.285156 343.648438 C 263.84375 342.441406 266.371094 341.167969 268.863281 339.835938 C 271.359375 338.5 273.820312 337.105469 276.246094 335.652344 C 278.675781 334.199219 281.0625 332.683594 283.417969 331.113281 C 285.769531 329.539062 288.082031 327.914062 290.355469 326.226562 C 292.625 324.542969 294.855469 322.800781 297.042969 321.007812 C 299.230469 319.210938 301.371094 317.363281 303.46875 315.464844 C 305.5625 313.5625 307.613281 311.613281 309.613281 309.613281 C 311.613281 307.613281 313.5625 305.5625 315.464844 303.46875 C 317.363281 301.371094 319.210938 299.230469 321.007812 297.042969 C 322.800781 294.855469 324.542969 292.625 326.226562 290.355469 C 327.914062 288.082031 329.539062 285.769531 331.113281 283.417969 C 332.683594 281.0625 334.199219 278.675781 335.652344 276.246094 C 337.105469 273.820312 338.5 271.359375 339.835938 268.863281 C 341.167969 266.371094 342.441406 263.84375 343.648438 261.285156 C 344.859375 258.726562 346.003906 256.140625 347.089844 253.527344 C 348.171875 250.914062 349.1875 248.277344 350.140625 245.613281 C 351.09375 242.949219 351.980469 240.261719 352.804688 237.554688 C 353.625 234.847656 354.378906 232.121094 355.066406 229.378906 C 355.753906 226.632812 356.375 223.875 356.925781 221.097656 C 357.476562 218.324219 357.960938 215.535156 358.375 212.738281 C 358.792969 209.941406 359.136719 207.132812 359.414062 204.316406 C 359.691406 201.5 359.898438 198.679688 360.039062 195.855469 C 360.179688 193.027344 360.246094 190.203125 360.246094 187.371094 C 360.242188 184.542969 360.171875 181.71875 360.03125 178.894531 C 359.886719 176.066406 359.675781 173.25 359.398438 170.433594 C 359.117188 167.621094 358.769531 164.8125 358.351562 162.015625 C 357.933594 159.21875 357.449219 156.433594 356.894531 153.660156 C 356.339844 150.886719 355.71875 148.128906 355.027344 145.386719 C 354.339844 142.640625 353.582031 139.917969 352.757812 137.210938 C 351.9375 134.503906 351.046875 131.820312 350.09375 129.160156 C 349.136719 126.496094 348.121094 123.859375 347.035156 121.246094 C 345.953125 118.632812 344.804688 116.050781 343.59375 113.492188 C 342.382812 110.9375 341.109375 108.414062 339.777344 105.917969 C 338.441406 103.425781 337.046875 100.964844 335.59375 98.539062 C 334.136719 96.113281 332.625 93.726562 331.050781 91.375 C 329.480469 89.023438 327.851562 86.710938 326.167969 84.441406 C 324.480469 82.167969 322.742188 79.941406 320.945312 77.753906 C 319.152344 75.566406 317.304688 73.425781 315.40625 71.332031 C 313.503906 69.238281 311.554688 67.1875 309.554688 65.1875 C 307.554688 63.1875 305.507812 61.238281 303.414062 59.339844 C 301.316406 57.441406 299.175781 55.59375 296.992188 53.796875 C 294.804688 52.003906 292.574219 50.261719 290.304688 48.578125 C 288.03125 46.894531 285.722656 45.265625 283.371094 43.691406 C 281.019531 42.121094 278.628906 40.605469 276.207031 39.152344 C 273.78125 37.695312 271.320312 36.300781 268.828125 34.96875 C 266.332031 33.632812 263.808594 32.359375 261.25 31.152344 C 258.695312 29.941406 256.109375 28.792969 253.5 27.710938 C 250.886719 26.625 248.25 25.605469 245.585938 24.652344 C 242.921875 23.695312 240.238281 22.808594 237.535156 21.984375 C 234.828125 21.164062 232.101562 20.40625 229.359375 19.714844 C 226.617188 19.027344 223.859375 18.40625 221.085938 17.851562 C 218.3125 17.296875 215.527344 16.8125 212.730469 16.394531 C 209.929688 15.976562 207.125 15.628906 204.3125 15.347656 C 201.496094 15.066406 198.675781 14.855469 195.851562 14.714844 C 193.027344 14.574219 190.199219 14.5 187.371094 14.496094 Z M 273.808594 196.015625 C 273.808594 198.6875 273.648438 201.351562 273.328125 204.007812 C 273.007812 206.660156 272.527344 209.285156 271.890625 211.882812 C 271.253906 214.480469 270.464844 217.027344 269.523438 219.53125 C 268.582031 222.03125 267.492188 224.46875 266.257812 226.839844 C 265.023438 229.210938 263.652344 231.5 262.140625 233.707031 C 260.632812 235.914062 258.996094 238.019531 257.234375 240.03125 C 255.46875 242.039062 253.59375 243.9375 251.601562 245.722656 C 249.613281 247.507812 247.523438 249.164062 245.332031 250.699219 L 191.898438 288.117188 C 191.238281 288.582031 190.523438 288.933594 189.757812 289.175781 C 188.988281 289.417969 188.203125 289.535156 187.394531 289.535156 C 186.589844 289.535156 185.804688 289.417969 185.035156 289.175781 C 184.265625 288.933594 183.554688 288.582031 182.894531 288.117188 L 129.460938 250.699219 C 127.265625 249.167969 125.175781 247.507812 123.183594 245.726562 C 121.1875 243.941406 119.308594 242.046875 117.546875 240.035156 C 115.78125 238.027344 114.140625 235.917969 112.628906 233.714844 C 111.117188 231.507812 109.746094 229.21875 108.507812 226.847656 C 107.269531 224.476562 106.179688 222.039062 105.234375 219.539062 C 104.292969 217.035156 103.5 214.484375 102.863281 211.886719 C 102.226562 209.289062 101.746094 206.664062 101.421875 204.011719 C 101.101562 201.355469 100.9375 198.691406 100.933594 196.015625 L 100.933594 132.367188 C 100.933594 131.636719 101.035156 130.921875 101.234375 130.21875 C 101.433594 129.515625 101.722656 128.855469 102.109375 128.234375 C 102.492188 127.613281 102.953125 127.054688 103.492188 126.5625 C 104.03125 126.070312 104.628906 125.660156 105.28125 125.332031 L 183.859375 86.042969 C 184.964844 85.492188 186.136719 85.214844 187.371094 85.214844 C 188.609375 85.214844 189.777344 85.492188 190.886719 86.042969 L 269.464844 125.332031 C 270.117188 125.660156 270.714844 126.070312 271.253906 126.5625 C 271.792969 127.054688 272.253906 127.613281 272.636719 128.234375 C 273.019531 128.855469 273.3125 129.515625 273.511719 130.21875 C 273.710938 130.921875 273.808594 131.636719 273.808594 132.367188 Z M 273.808594 196.015625 "/></g></g></g></svg>